<?xml version="1.0" standalone="no"?><!DOCTYPE svg PUBLIC "-//W3C//DTD SVG 1.1//EN" "http://www.w3.org/Graphics/SVG/1.1/DTD/svg11.dtd"><svg t="1583058436398" class="icon" viewBox="0 0 1024 1024" version="1.1" xmlns="http://www.w3.org/2000/svg" p-id="1085" xmlns:xlink="http://www.w3.org/1999/xlink" width="48" height="48"><defs><style type="text/css"></style></defs><path d="M511.488 881.152c-88.576 0-347.136-312.832-347.136-486.4C164.352 216.576 319.488 71.68 511.488 71.68s347.136 144.384 347.136 323.072c0 174.08-258.56 486.4-347.136 486.4z m0-756.736c-159.744 0-288.768 120.832-289.28 269.312 0 148.992 232.96 418.816 289.28 434.688 55.808-15.36 289.28-285.184 289.28-434.688-0.512-148.992-130.048-269.312-289.28-269.312z" fill="#2E77ED" p-id="1086"></path><path d="M511.488 561.152c-66.048 0-119.296-53.248-119.296-119.296C391.68 376.32 444.928 322.56 510.976 322.56c66.048 0 119.296 53.248 119.296 119.296 0 65.536-53.248 119.296-118.784 119.296z m0-183.296c-35.328 0-64 28.16-64 63.488s28.16 64 63.488 64 64-28.16 64-63.488v-0.512c0-34.816-28.672-62.976-63.488-63.488z" fill="#FFBB12" p-id="1087"></path></svg>