<?xml version="1.0" standalone="no"?><!DOCTYPE svg PUBLIC "-//W3C//DTD SVG 1.1//EN" "http://www.w3.org/Graphics/SVG/1.1/DTD/svg11.dtd"><svg t="1583058443030" class="icon" viewBox="0 0 1024 1024" version="1.1" xmlns="http://www.w3.org/2000/svg" p-id="1224" xmlns:xlink="http://www.w3.org/1999/xlink" width="48" height="48"><defs><style type="text/css"></style></defs><path d="M788.48 173.056H235.52c-93.696 0-165.888 62.976-165.888 145.408v387.584c0 82.432 71.68 145.408 165.888 145.408h552.96c93.696 0 165.888-62.976 165.888-145.408V318.464c-0.512-82.432-72.192-145.408-165.888-145.408z m111.616 526.848c0 51.712-49.664 93.696-111.104 93.696H234.496c-60.928 0-111.104-42.496-111.104-93.696V324.608c0-51.712 49.664-93.696 111.104-93.696h554.496c60.928 0 111.104 42.496 111.104 93.696v375.296z" fill="#2E77ED" p-id="1225"></path><path d="M324.096 467.968c-27.648 0-44.032 22.016-44.032 44.032s16.384 44.032 44.032 44.032c27.648 0 44.032-16.384 44.032-44.032 0-27.648-16.384-44.032-44.032-44.032zM512 467.968c-27.648 0-44.032 22.016-44.032 44.032s16.384 44.032 44.032 44.032c27.648 0 44.032-16.384 44.032-44.032 0-27.648-16.384-44.032-44.032-44.032zM699.904 467.968c-27.648 0-44.032 22.016-44.032 44.032s16.384 44.032 44.032 44.032c27.648 0 44.032-16.384 44.032-44.032 0-27.648-16.384-44.032-44.032-44.032z" fill="#FFBB12" p-id="1226"></path></svg>